HIERARCHY
ROOT Hips
{
	OFFSET 49.342400 -8.183114 86.447098
	CHANNELS 6 Xposition Yposition Zposition Xrotation Yrotation Zrotation
	JOINT spine
	{
		OFFSET 0.000000 -0.393701 6.846367
		CHANNELS 3 Xrotation Yrotation Zrotation
		JOINT spine1
		{
			OFFSET 0.000000 -0.000002 9.496208
			CHANNELS 3 Xrotation Yrotation Zrotation
			JOINT spine2
			{
				OFFSET 0.000000 -0.000001 9.099091
				CHANNELS 3 Xrotation Yrotation Zrotation
				JOINT Neck
				{
					OFFSET 0.000000 -1.113784 23.361206
					CHANNELS 3 Xrotation Yrotation Zrotation
					JOINT Head
					{
						OFFSET 0.000000 -0.000001 7.058014
						CHANNELS 3 Xrotation Yrotation Zrotation
						End Site
						{
							OFFSET 0.000000 5.634187 17.084396
						}
					}
				}
				JOINT RightShoulder
				{
					OFFSET -3.831360 0.533489 9.826309
					CHANNELS 3 Xrotation Yrotation Zrotation
					JOINT RightArm
					{
						OFFSET 0.000000 -0.000002 12.888107
						CHANNELS 3 Xrotation Yrotation Zrotation
						JOINT RightArmRoll
						{
							OFFSET 0.000000 -0.000001 6.506165
							CHANNELS 3 Xrotation Yrotation Zrotation
							JOINT RightForeArm
							{
								OFFSET 0.000000 -0.000003 18.950104
								CHANNELS 3 Xrotation Yrotation Zrotation
								JOINT RightForeArmRoll
								{
									OFFSET 0.000000 -0.000002 7.300919
									CHANNELS 3 Xrotation Yrotation Zrotation
									JOINT RightHand
									{
										OFFSET 0.000000 -0.000002 14.651398
										CHANNELS 3 Xrotation Yrotation Zrotation
										End Site
										{
											OFFSET 0.000000 0.000000 0.100006
										}
									}
								}
							}
						}
					}
				}
				JOINT LeftShoulder
				{
					OFFSET 3.831360 0.533489 9.826309
					CHANNELS 3 Xrotation Yrotation Zrotation
					JOINT LeftArm
					{
						OFFSET 0.000000 -0.000002 12.888107
						CHANNELS 3 Xrotation Yrotation Zrotation
						JOINT LeftArmRoll
						{
							OFFSET 0.000000 -0.000001 6.506165
							CHANNELS 3 Xrotation Yrotation Zrotation
							JOINT LeftForeArm
							{
								OFFSET 0.000000 -0.000003 18.950104
								CHANNELS 3 Xrotation Yrotation Zrotation
								JOINT LeftForeArmRoll
								{
									OFFSET 0.000000 -0.000002 7.300934
									CHANNELS 3 Xrotation Yrotation Zrotation
									JOINT LeftHand
									{
										OFFSET 0.000000 -0.000002 14.651398
										CHANNELS 3 Xrotation Yrotation Zrotation
										End Site
										{
											OFFSET 0.000000 0.000000 0.100006
										}
									}
								}
							}
						}
					}
				}
			}
		}
	}
	JOINT RightUpLeg
	{
		OFFSET -6.068371 0.933477 -1.112778
		CHANNELS 3 Xrotation Yrotation Zrotation
		JOINT RightUpLegRoll
		{
			OFFSET 0.000000 -0.000003 17.179596
			CHANNELS 3 Xrotation Yrotation Zrotation
			JOINT RightLeg
			{
				OFFSET 0.000000 0.000003 -21.274300
				CHANNELS 3 Xrotation Yrotation Zrotation
				JOINT RightLegRoll
				{
					OFFSET 0.000000 -0.000003 21.343903
					CHANNELS 3 Xrotation Yrotation Zrotation
					JOINT RightFoot
					{
						OFFSET 0.000000 -0.000003 17.765198
						CHANNELS 3 Xrotation Yrotation Zrotation
						JOINT RightToeBase
						{
							OFFSET 0.000000 -0.000002 14.850807
							CHANNELS 3 Xrotation Yrotation Zrotation
							End Site
							{
								OFFSET 0.006294 0.829003 7.192123
							}
						}
					}
				}
			}
		}
	}
	JOINT LeftUpLeg
	{
		OFFSET 6.068371 0.933477 -1.112778
		CHANNELS 3 Xrotation Yrotation Zrotation
		JOINT LeftUpLegRoll
		{
			OFFSET 0.000000 -0.000003 17.179703
			CHANNELS 3 Xrotation Yrotation Zrotation
			JOINT LeftLeg
			{
				OFFSET 0.000000 -0.000003 21.274200
				CHANNELS 3 Xrotation Yrotation Zrotation
				JOINT LeftLegRoll
				{
					OFFSET 0.000000 -0.000004 21.541199
					CHANNELS 3 Xrotation Yrotation Zrotation
					JOINT LeftFoot
					{
						OFFSET 0.000000 -0.000003 17.567902
						CHANNELS 3 Xrotation Yrotation Zrotation
						JOINT LeftToeBase
						{
							OFFSET 0.000000 -0.000002 14.850800
							CHANNELS 3 Xrotation Yrotation Zrotation
							End Site
							{
								OFFSET -0.028210 0.829004 7.192139
							}
						}
					}
				}
			}
		}
	}
}
MOTION
Frames: 4
Frame Time: 0.041667
50.139194 -6.506804 86.468506 -2.227821 -0.390412 -0.543842 -1.788498 -1.483238 1.196040 0.441475 -3.004251 2.361148 2.086885 -2.975470 2.396884 7.419118 17.241568 -0.541711 9.166965 -9.958003 -1.026129 -11.002671 -50.722153 -12.518868 -56.484264 -120.080886 -38.485199 0.000003 0.000038 -0.000000 0.127377 -16.273166 -0.105098 -0.000006 0.000009 -3.015880 -5.000232 -7.998864 0.000149 -34.948210 75.379989 39.632856 -81.951007 119.959200 55.601295 0.000001 0.000001 -0.000002 0.115237 14.796474 -0.707517 0.000002 -0.000005 3.008958 -5.000200 7.998775 -0.000175 -14.623309 -179.762943 -2.413971 -179.999991 0.000005 -1.302007 154.923252 -3.340294 -1.267789 -0.000001 -0.000001 0.737906 72.945184 7.532859 -0.014328 25.456959 -7.355617 0.000001 -12.580579 176.901080 0.142716 -0.000005 -0.000005 -0.866975 -25.320263 1.326175 1.240113 -0.000002 0.000008 -0.464734 74.646338 -5.863481 -4.791938 25.456955 7.355613 -0.000002 
50.143295 -6.510074 86.471901 -2.222572 -0.391527 -0.537395 -1.790549 -1.483196 1.194688 0.438440 -3.004332 2.358410 2.083861 -2.975576 2.394141 7.415035 17.227120 -0.533338 9.162598 -9.945179 -1.019029 -11.001699 -50.725455 -12.517842 -56.489882 -120.087539 -38.505625 0.000003 0.000038 0.000000 0.127378 -16.277268 -0.100086 -0.000007 0.000009 -3.015881 -5.000236 -7.998862 0.000149 -34.938856 75.377162 39.623061 -81.937285 119.955552 55.607592 0.000003 0.000002 -0.000001 0.114855 14.811175 -0.710726 0.000002 -0.000006 3.008963 -5.000199 7.998774 -0.000174 -14.628515 -179.761003 -2.413911 -179.999991 0.000005 -1.302007 154.922884 -3.339380 -1.267389 -0.000003 -0.000000 0.737906 72.945771 7.532439 -0.013232 25.456959 -7.355616 0.000001 -12.586453 176.904072 0.148040 -0.000004 -0.000004 -0.866978 -25.318434 1.323618 1.240109 -0.000002 0.000009 -0.464734 74.644030 -5.863068 -4.792600 25.456955 7.355613 -0.000002 
50.155098 -6.497653 86.472214 -2.217119 -0.392647 -0.530910 -1.792668 -1.483155 1.193285 0.435314 -3.004444 2.355567 2.080726 -2.975691 2.391293 7.410831 17.212478 -0.524836 9.158243 -9.932159 -1.011826 -11.000527 -50.728788 -12.516580 -56.495367 -120.094123 -38.526037 0.000004 0.000037 -0.000001 0.127379 -16.281366 -0.095106 -0.000005 0.000009 -3.015891 -5.000233 -7.998864 0.000149 -34.929570 75.374334 39.613311 -81.923297 119.951632 55.614119 0.000002 0.000000 -0.000001 0.114284 14.826374 -0.714014 0.000006 -0.000007 3.008958 -5.000197 7.998775 -0.000173 -14.634017 -179.759077 -2.413817 -179.999991 0.000005 -1.302006 154.922487 -3.339370 -1.267412 -0.000002 -0.000000 0.737906 72.946250 7.532028 -0.012025 25.456957 -7.355616 0.000001 -12.592611 176.908060 0.153336 -0.000005 -0.000004 -0.866978 -25.316598 1.320980 1.240111 -0.000001 0.000009 -0.464734 74.641803 -5.862564 -4.793349 25.456957 7.355615 -0.000001 
50.145195 -6.496461 86.470901 -2.211525 -0.393771 -0.524400 -1.794831 -1.483093 1.191851 0.432122 -3.004566 2.352660 2.077542 -2.975816 2.388392 7.406554 17.197841 -0.516266 9.153870 -9.919038 -1.004571 -10.999210 -50.732121 -12.515137 -56.500718 -120.100639 -38.546429 0.000005 0.000038 0.000001 0.127381 -16.285565 -0.090144 -0.000007 0.000009 -3.015890 -5.000231 -7.998862 0.000148 -34.920309 75.371499 39.603595 -81.909247 119.947520 55.620976 -0.000000 0.000003 0.000002 0.113572 14.841876 -0.717356 0.000002 -0.000006 3.008958 -5.000199 7.998774 -0.000174 -14.639520 -179.757151 -2.413708 -179.999991 0.000005 -1.302007 154.922187 -3.339361 -1.267430 -0.000002 -0.000000 0.737906 72.946721 7.531585 -0.010725 25.456955 -7.355616 0.000001 -12.598887 176.911066 0.158978 -0.000004 -0.000004 -0.866978 -25.314776 1.318270 1.240109 -0.000002 0.000009 -0.464734 74.639385 -5.862132 -4.793916 25.456957 7.355614 -0.000002 
